<svg xmlns="http://www.w3.org/2000/svg" width="26" height="26" viewBox="0 0 26 26" fill="none">
    <path d="M11.4507 15.3245L15.4764 12.9996L11.4507 10.6748V15.3245Z" fill="#666D7A">
    </path>
    <path
        d="M18.941 0H7.059C3.17633 0 0 3.20233 0 7.11533V18.8847C0 22.7977 3.17633 26 7.059 26H18.941C22.8237 26 26 22.7977 26 18.8847V7.11533C26 3.20233 22.8237 0 18.941 0ZM20.4252 16.731C20.2475 17.3983 19.721 17.9227 19.0558 18.1003C17.8468 18.4232 13.0022 18.4232 13.0022 18.4232C13.0022 18.4232 8.15533 18.4232 6.9485 18.1003C6.28117 17.9227 5.75683 17.3962 5.57917 16.731C5.25633 15.522 5.25633 13 5.25633 13C5.25633 13 5.25633 10.478 5.57917 9.269C5.75683 8.60167 6.28333 8.07733 6.9485 7.89967C8.1575 7.57683 13.0022 7.57683 13.0022 7.57683C13.0022 7.57683 17.849 7.57683 19.0558 7.89967C19.7232 8.07733 20.2475 8.60383 20.4252 9.269C20.748 10.478 20.748 13 20.748 13C20.748 13 20.748 15.522 20.4252 16.731Z"
        fill="#666D7A"></path>
</svg>